#!OML:ASF F:\VICON\USERDATA\INSTALL\Justin_Nancy\Justin_Nancy.ASF
:FULLY-SPECIFIED
:DEGREES
479
root 0.146116 17.0548 43.3023 2.15852 1.17565 5.50365
lowerback 5.68574 -1.87409 -6.68435
upperback 0.605084 -2.86442 1.94834
thorax -2.13329 -1.3695 5.99289
lowerneck -18.3946 -2.27121 -8.97101
upperneck 20.0353 -1.62109 4.49292
head 9.48334 -0.937269 2.82979
rclavicle -1.0635e-014 -7.15625e-015
rhumerus -35.568 -25.9383 -70.9431
rradius 22.7231
rwrist 15.3336
rhand -15.4498 11.0344
rfingers 7.12502
rthumb 10.7309 -18.6715
lclavicle -1.0635e-014 -7.15625e-015
lhumerus -19.6859 8.73978 83.8095
lradius 29.7244
lwrist -10.0076
lhand -15.0601 27.091
lfingers 7.12502
lthumb 11.1068 416.777
rfemur -28.4496 1.14893 14.4061
rtibia 16.97
rfoot -3.47979 -8.4418
rtoes -10.9559
lfemur 12.495 -1.23073 -28.0246
ltibia 15.038
lfoot -14.2124 -1.48189
ltoes -16.1668
480
root 0.122513 17.0688 43.4855 2.0484 1.49453 5.59575
lowerback 5.02109 -1.96499 -6.7898
upperback 1.00179 -2.9384 1.93823
thorax -1.33238 -1.45032 6.00192
lowerneck -18.3077 -2.31126 -9.00963
upperneck 19.7184 -1.66237 4.46637
head 9.36019 -0.957489 2.8164
rclavicle -2.13694e-014 -3.18055e-015
rhumerus -35.3014 -26.5845 -70.768
rradius 22.3889
rwrist 15.9812
rhand -15.4635 11.0406
rfingers 7.12502
rthumb 10.7177 -18.666
lclavicle -2.13694e-014 -3.18055e-015
lhumerus -19.3517 9.2104 83.9136
lradius 29.8828
lwrist -10.912
lhand -13.992 28.4296
lfingers 7.12502
lthumb 12.1368 418.058
rfemur -28.391 0.960342 14.4203
rtibia 18.1719
rfoot -3.48289 -7.70966
rtoes -11.459
lfemur 13.5517 -1.6893 -28.0743
ltibia 14.2637
lfoot -13.0985 -1.68295
ltoes -17.3215
481
root 0.0959218 17.1022 43.6774 1.8372 1.80764 5.51163
lowerback 6.00042 -2.03671 -6.69172
upperback 0.177168 -3.11123 2.00412
thorax -2.71477 -1.45598 6.10085
lowerneck -17.1943 -2.26034 -9.21714
upperneck 20.071 -1.64997 4.45988
head 9.28156 -0.985884 2.85535
rclavicle 0 7.95139e-015
rhumerus -36.9766 -26.0111 -69.8418
rradius 22.1454
rwrist 15.9875
rhand -15.4012 10.8323
rfingers 7.12502
rthumb 10.7778 -18.8712
lclavicle 0 7.95139e-015
lhumerus -21.0237 9.40448 83.7327
lradius 30.1117
lwrist -11.3061
lhand -13.2124 29.5211
lfingers 7.12502
lthumb 12.8885 419.103
rfemur -28.322 1.10368 14.4395
rtibia 19.2025
rfoot -2.87379 -7.32682
rtoes -10.3678
lfemur 14.7292 -2.0971 -27.9212
ltibia 13.5916
lfoot -12.0019 -1.87024
ltoes -19.6118
482
root 0.0696338 17.1264 43.8674 1.58042 2.05001 5.35466
lowerback 5.54099 -2.14574 -6.68233
upperback 0.58977 -3.21309 2.13925
thorax -2.00411 -1.54868 6.20569
lowerneck -17.7639 -2.2045 -9.19075
upperneck 20.0937 -1.5155 4.43307
head 9.38304 -0.919059 2.8598
rclavicle -3.08116e-014 -3.81667e-014
rhumerus -36.251 -26.8579 -69.5378
rradius 21.2958
rwrist 16.9981
rhand -15.3201 11.0206
rfingers 7.12502
rthumb 10.856 -18.6788
lclavicle -3.08116e-014 -3.81667e-014
lhumerus -20.557 9.6711 83.9441
lradius 29.7957
lwrist -10.9323
lhand -13.8433 29.2171
lfingers 7.12502
lthumb 12.2802 418.837
rfemur -27.873 0.984995 14.6654
rtibia 19.7307
rfoot -2.03464 -6.9989
rtoes -9.08409
lfemur 15.686 -2.59467 -27.7673
ltibia 13.6719
lfoot -11.1695 -1.8457
ltoes -21.5076
483
root 0.043807 17.1447 44.0487 1.56185 2.21189 5.27556
lowerback 5.52865 -2.17098 -6.61153
upperback 0.44097 -3.24421 2.16899
thorax -2.1495 -1.55438 6.20289
lowerneck -17.7248 -2.09252 -9.08552
upperneck 20.287 -1.39593 4.43112
head 9.43289 -0.859441 2.86067
rclavicle 4.36332e-014 1.98785e-014
rhumerus -36.5495 -27.5841 -68.8996
rradius 20.73
rwrist 18.1452
rhand -15.1763 11.2964
rfingers 7.12502
rthumb 10.9947 -18.3957
lclavicle 4.36332e-014 1.98785e-014
lhumerus -21.1049 9.81584 83.9843
lradius 29.4704
lwrist -10.292
lhand -15.233 27.2306
lfingers 7.12502
lthumb 10.94 416.926
rfemur -27.264 0.910397 14.7835
rtibia 19.7297
rfoot -1.53316 -6.87658
rtoes -6.30375
lfemur 15.6488 -3.24485 -27.7303
ltibia 14.8846
lfoot -10.2569 -1.83004
ltoes -21.3012
484
root 0.00857866 17.1723 44.2168 1.65277 2.13467 4.60071
lowerback 5.57193 -2.13681 -6.08213
upperback 0.177429 -3.1673 2.39305
thorax -2.47567 -1.5 6.14513
lowerneck -17.5917 -2.14511 -8.94017
upperneck 20.8685 -1.45274 4.09964
head 9.61479 -0.924513 2.72117
rclavicle 3.3197e-014 -1.11319e-014
rhumerus -37.2918 -27.4537 -68.4693
rradius 20.819
rwrist 18.2557
rhand -14.9966 11.0784
rfingers 7.12502
rthumb 11.168 -18.6044
lclavicle 3.3197e-014 -1.11319e-014
lhumerus -21.9175 10.0874 83.9678
lradius 29.4505
lwrist -9.97729
lhand -15.8238 26.5749
lfingers 7.12502
lthumb 10.3701 416.299
rfemur -26.7816 1.65771 15.4368
rtibia 19.5295
rfoot -1.08565 -6.8559
rtoes -5.54598
lfemur 14.8047 -3.9936 -27.0414
ltibia 16.9403
lfoot -9.32472 -1.75312
ltoes -18.9797
485
root -0.0264347 17.1931 44.3771 1.67957 1.95243 3.64215
lowerback 5.49103 -2.05954 -5.33208
upperback 0.195951 -3.0026 2.75208
thorax -2.45423 -1.42632 6.08193
lowerneck -17.6695 -2.31059 -9.10062
upperneck 21.0139 -1.62115 4.05566
head 9.69541 -1.02281 2.7116
rclavicle 4.37326e-015 2.38542e-015
rhumerus -37.4642 -27.6257 -68.116
rradius 20.7968
rwrist 18.4731
rhand -15.04 10.9128
rfingers 7.12502
rthumb 11.1262 -18.7723
lclavicle 4.37326e-015 2.38542e-015
lhumerus -22.1303 10.5374 84.1026
lradius 29.4322
lwrist -10.1538
lhand -15.3021 27.4662
lfingers 7.12502
lthumb 10.8734 417.165
rfemur -26.1781 2.44959 16.503
rtibia 19.2216
rfoot -0.375462 -6.7282
rtoes -6.13502
lfemur 13.8277 -4.42554 -25.9991
ltibia 19.3815
lfoot -8.60569 -1.72487
ltoes -18.7506
486
root -0.0440725 17.2023 44.5537 1.50302 2.01987 3.07376
lowerback 5.21854 -2.05352 -4.69478
upperback 0.490667 -2.93838 2.92473
thorax -2.02747 -1.42218 5.87332
lowerneck -17.9431 -2.41836 -9.2832
upperneck 20.9212 -1.72747 4.21264
head 9.72443 -1.06438 2.78141
rclavicle 2.65378e-014 4.77083e-015
rhumerus -37.212 -28.909 -67.4798
rradius 20.1866
rwrist 19.6997
rhand -15.3097 11.2561
rfingers 7.12502
rthumb 10.8661 -18.4428
lclavicle 2.65378e-014 4.77083e-015
lhumerus -21.7999 10.978 84.3151
lradius 29.0046
lwrist -10.0726
lhand -15.4733 26.8215
lfingers 7.12502
lthumb 10.7082 416.529
rfemur -25.1516 2.02341 17.3692
rtibia 18.9347
rfoot 0.329815 -6.08821
rtoes -4.06101
lfemur 13.2209 -4.68762 -25.411
ltibia 21.8439
lfoot -7.87626 -1.74514
ltoes -20.4208
487
root -0.0580714 17.224 44.7397 1.39321 2.0321 2.74836
lowerback 5.11423 -2.06877 -4.2399
upperback 0.37911 -2.92736 2.99426
thorax -2.10528 -1.41514 5.68513
lowerneck -17.387 -2.25021 -9.20522
upperneck 20.8856 -1.57725 4.23303
head 9.5962 -0.99036 2.79574
rclavicle 3.77691e-015 -8.74653e-015
rhumerus -37.6393 -29.7398 -66.6048
rradius 19.5487
rwrist 20.9807
rhand -15.335 11.3359
rfingers 7.12502
rthumb 10.8417 -18.3643
lclavicle 3.77691e-015 -8.74653e-015
lhumerus -22.0517 11.4652 84.2997
lradius 28.3126
lwrist -9.75099
lhand -16.6865 24.8924
lfingers 7.12502
lthumb 9.53786 414.657
rfemur -24.42 1.37228 17.9839
rtibia 19.032
rfoot 0.692366 -5.3319
rtoes -2.31145
lfemur 12.5888 -4.77025 -25.0548
ltibia 24.0481
lfoot -6.66306 -1.92848
ltoes -20.9499
488
root -0.0876792 17.2498 44.9138 1.48639 1.72692 2.69456
lowerback 4.84798 -1.96222 -4.30335
upperback 0.265927 -2.77975 3.02442
thorax -2.0878 -1.3387 5.73542
lowerneck -16.9505 -2.06754 -8.95822
upperneck 20.9601 -1.38089 4.0016
head 9.52323 -0.910735 2.70038
rclavicle 1.95803e-014 -4.05521e-014
rhumerus -38.0591 -30.3045 -66.0085
rradius 19.3463
rwrist 21.8987
rhand -15.339 11.2733
rfingers 7.12502
rthumb 10.8378 -18.427
lclavicle 1.95803e-014 -4.05521e-014
lhumerus -22.412 12.0958 84.2175
lradius 28.0122
lwrist -10.2101
lhand -16.3829 24.5799
lfingers 7.12502
lthumb 9.83077 414.33
rfemur -24.2249 1.32344 18.2975
rtibia 19.5681
rfoot 0.796701 -4.81257
rtoes -2.336
lfemur 11.6922 -4.44655 -24.8245
ltibia 25.8885
lfoot -4.64926 -2.31238
ltoes -21.1064
